<?xml version="1.0" standalone="no"?>
<!DOCTYPE svg PUBLIC "-//W3C//DTD SVG 20010904//EN"
 "http://www.w3.org/TR/2001/REC-SVG-20010904/DTD/svg10.dtd">
<svg version="1.0" xmlns="http://www.w3.org/2000/svg"
 width="640.000000pt" height="640.000000pt" viewBox="0 0 640.000000 640.000000"
 preserveAspectRatio="xMidYMid meet">
<metadata>
Created by potrace 1.14, written by Peter Selinger 2001-2017
</metadata>
<g transform="translate(0.000000,640.000000) scale(0.100000,-0.100000)"
fill="#000000" stroke="none">
<path d="M2455 6247 c-58 -20 -130 -57 -156 -79 -77 -69 -110 -164 -89 -257
16 -72 25 -92 66 -135 91 -96 274 -135 459 -97 90 19 152 24 159 13 12 -20 -6
-40 -45 -50 -53 -13 -128 -66 -161 -113 -30 -42 -42 -43 -86 -3 -14 13 -33 24
-43 24 -10 0 -20 4 -23 9 -3 5 -20 12 -38 15 -18 4 -55 11 -83 17 -80 17 -293
22 -355 9 -86 -18 -132 -31 -167 -46 -28 -12 -33 -19 -33 -47 0 -19 14 -60 30
-91 32 -59 32 -76 0 -76 -46 0 -203 -47 -288 -86 -29 -13 -55 -24 -59 -24 -7
0 -120 -58 -178 -90 -22 -13 -65 -37 -95 -53 -30 -17 -69 -41 -86 -54 -17 -13
-35 -23 -41 -23 -5 0 -18 -8 -29 -18 -10 -9 -49 -37 -86 -60 -37 -24 -68 -47
-70 -50 -2 -4 -21 -19 -44 -35 -80 -54 -354 -334 -354 -361 0 -4 -7 -14 -15
-22 -8 -9 -18 -27 -21 -41 -8 -32 18 -55 53 -47 12 4 30 4 38 0 16 -6 8 -29
-50 -151 -27 -57 -67 -160 -85 -220 -7 -22 -16 -49 -21 -60 -4 -11 -20 -74
-34 -140 -14 -66 -28 -129 -31 -140 -15 -59 -47 -359 -45 -425 1 -38 36 -84
49 -64 4 6 17 14 29 18 21 7 21 5 27 -146 8 -228 42 -424 96 -545 6 -13 14
-33 19 -45 4 -13 20 -48 35 -78 14 -30 26 -61 26 -68 0 -6 3 -12 8 -12 4 0 13
-15 21 -33 13 -29 122 -191 167 -246 75 -94 213 -242 369 -397 140 -138 213
-201 310 -269 69 -48 133 -94 140 -101 7 -8 16 -14 20 -14 11 0 170 -114 205
-148 31 -29 40 -32 75 -28 35 4 45 0 93 -40 53 -43 65 -48 109 -44 12 0 48
-13 80 -31 75 -42 120 -64 208 -99 63 -25 235 -80 252 -80 37 0 46 -24 23 -64
-14 -26 -20 -55 -20 -101 0 -36 3 -65 8 -65 4 0 15 -12 25 -25 17 -23 17 -27
2 -63 -9 -20 -21 -45 -26 -54 -5 -10 -9 -25 -9 -33 0 -8 -4 -23 -10 -33 -18
-32 -58 -184 -76 -294 l-7 -38 41 0 c44 0 43 -1 56 75 3 17 9 48 14 70 13 54
51 231 60 275 6 30 12 36 37 38 56 7 60 46 9 82 -51 34 -60 58 -43 115 22 74
29 77 134 53 81 -17 134 -26 273 -44 32 -5 45 -12 52 -28 17 -43 85 -88 153
-101 35 -7 124 9 137 24 3 4 20 19 38 34 31 25 40 27 120 27 103 0 192 -10
192 -21 0 -4 -7 -14 -15 -23 -21 -20 -19 -50 5 -71 11 -10 20 -27 20 -38 0
-22 2 -28 51 -182 18 -55 36 -118 40 -140 28 -143 29 -145 75 -145 38 0 43 15
25 74 -5 17 -14 49 -20 71 -23 88 -65 221 -73 230 -4 5 -8 16 -8 26 0 9 -9 39
-21 67 l-21 51 23 50 23 51 65 1 c36 1 75 3 86 4 11 2 60 7 108 11 48 4 90 11
93 16 3 4 21 8 41 8 20 0 52 4 72 9 20 5 61 14 91 21 50 10 114 29 165 49 42
17 92 31 108 31 10 0 25 4 35 9 9 5 46 21 82 36 76 32 293 137 300 145 3 3 28
20 56 38 28 18 67 48 87 67 58 57 79 87 157 230 9 17 26 64 39 105 13 41 31
95 40 120 25 71 20 273 -9 375 -12 44 -25 95 -27 113 -3 18 -9 35 -14 38 -12
7 -11 94 1 94 6 0 10 9 10 20 0 11 37 58 84 108 123 130 163 232 137 353 -24
111 -83 190 -160 214 -22 7 -23 10 -17 69 4 33 11 86 17 116 13 67 6 459 -10
575 -6 44 -18 116 -26 160 -9 44 -19 94 -21 110 -3 17 -9 39 -13 50 -5 11 -14
38 -21 60 -7 22 -28 72 -46 112 -19 39 -34 77 -34 83 0 13 58 10 105 -5 11 -3
28 0 39 8 32 23 23 73 -35 190 -11 22 -19 43 -19 47 0 26 -148 248 -206 310
-23 25 -53 59 -65 75 -49 65 -242 239 -328 297 -25 17 -55 39 -66 48 -11 10
-51 35 -90 55 -38 21 -83 46 -100 56 -16 9 -54 27 -83 38 -30 12 -87 37 -128
56 -61 29 -74 39 -74 58 0 37 -21 53 -85 66 -33 7 -69 17 -80 21 -66 27 -224
68 -310 81 -33 6 -85 14 -115 19 -150 26 -312 41 -407 37 -107 -5 -124 1 -98
36 11 15 32 17 158 17 80 0 148 4 152 9 3 5 19 13 37 16 31 7 90 36 116 58 25
20 62 94 71 141 16 85 -26 171 -111 228 -81 53 -107 64 -190 78 -96 16 -181 2
-286 -47 -68 -32 -105 -62 -189 -154 l-33 -36 23 -21 23 -22 65 63 c124 118
284 162 444 122 73 -19 175 -121 175 -175 0 -28 -25 -86 -45 -106 -6 -7 -34
-23 -61 -37 -68 -33 -157 -40 -347 -26 -213 16 -246 5 -281 -101 -25 -77 -29
-175 -12 -304 11 -79 13 -123 7 -129 -7 -7 -12 -5 -15 4 -8 26 -19 213 -22
367 -1 103 -6 157 -14 167 -16 19 -70 19 -190 -1 -153 -26 -243 -29 -308 -10
-90 27 -118 42 -148 82 -23 30 -29 49 -32 104 -5 78 10 115 61 154 46 35 134
74 184 82 43 6 170 -12 188 -28 5 -4 19 -8 32 -8 13 0 23 -3 23 -8 0 -4 13
-13 29 -20 28 -13 94 -72 154 -140 31 -34 64 -44 53 -16 -4 9 -11 36 -17 60
-6 24 -15 44 -20 44 -5 0 -9 9 -9 20 0 14 -7 20 -21 20 -11 0 -38 15 -60 34
-45 38 -145 90 -204 105 -50 14 -190 12 -230 -2z m2285 -1888 c17 -44 33 -94
37 -110 3 -16 9 -29 14 -29 5 0 9 -6 9 -14 0 -7 9 -35 19 -62 11 -27 27 -76
37 -109 9 -33 21 -64 26 -69 4 -6 8 -19 8 -30 0 -11 9 -47 20 -80 11 -34 28
-83 36 -111 26 -81 58 -145 74 -146 8 -1 24 -2 35 -3 21 -1 33 -32 18 -47 -4
-4 -26 -3 -48 2 -170 43 -245 44 -245 2 0 -21 18 -27 191 -69 l117 -29 6 -60
c19 -200 34 -309 66 -470 6 -27 13 -69 16 -93 4 -23 11 -45 15 -48 5 -3 9 -15
9 -28 0 -23 24 -106 42 -143 18 -36 2 -44 -48 -23 -55 24 -120 26 -162 5 -38
-19 -90 -78 -109 -122 -17 -42 -19 -149 -2 -185 33 -75 192 -122 282 -84 64
26 96 71 113 155 l6 34 19 -24 c10 -13 19 -31 19 -40 0 -8 4 -19 8 -25 5 -5
15 -25 22 -44 13 -35 34 -87 51 -125 9 -21 49 -165 76 -275 23 -96 28 -234 9
-300 -17 -63 -40 -133 -63 -190 -81 -199 -167 -288 -390 -399 -187 -94 -408
-171 -603 -212 -30 -6 -80 -17 -110 -24 -132 -31 -253 -37 -585 -32 -218 4
-367 11 -440 22 -146 21 -239 33 -300 40 -51 6 -72 11 -180 40 -33 9 -78 21
-100 26 -98 26 -124 33 -185 54 -36 13 -78 28 -95 35 -16 7 -39 16 -50 20 -45
18 -220 104 -225 110 -3 4 -17 13 -31 21 -53 28 -187 147 -224 200 -52 73 -83
164 -87 254 l-3 70 30 3 c17 2 33 7 37 10 6 6 17 177 22 337 1 38 12 55 35 55
25 0 38 32 71 175 7 28 23 88 37 135 13 47 29 103 35 125 7 22 21 63 33 90 12
28 28 66 35 85 25 69 60 148 131 297 33 68 59 129 59 138 0 19 27 19 46 0 30
-29 47 -22 154 70 26 22 73 58 104 80 32 22 64 45 70 52 17 15 113 76 172 109
27 14 58 35 70 45 26 24 46 24 62 -1 15 -25 52 -26 83 -1 13 10 41 28 62 40
20 11 54 30 74 42 47 27 102 67 131 96 47 48 52 25 17 -89 -10 -31 -15 -64
-12 -73 12 -29 104 -12 199 36 10 5 22 9 28 9 23 0 224 98 250 123 21 18 50
23 50 7 0 -16 -23 -60 -32 -60 -4 0 -8 -11 -8 -25 0 -36 37 -42 91 -14 24 12
46 24 49 28 3 3 25 17 50 30 43 24 154 100 201 138 32 26 139 138 157 165 9
13 27 34 39 48 13 14 23 28 23 32 0 4 19 38 43 75 23 37 48 79 54 93 6 14 21
46 32 73 28 63 51 161 51 220 0 26 4 47 9 47 5 0 24 -36 41 -81z m879 -1605
c35 -21 75 -86 91 -151 12 -45 11 -58 -4 -106 -19 -61 -82 -153 -145 -210 -22
-21 -41 -42 -41 -48 0 -6 -10 -9 -21 -7 -25 4 -56 85 -44 115 4 10 9 63 11
118 2 55 8 116 14 135 5 19 10 55 10 80 0 55 8 68 46 80 43 12 53 12 83 -6z
m-4141 -89 c50 -22 63 -44 73 -127 8 -62 14 -101 39 -268 4 -30 16 -84 25
-120 10 -36 21 -81 25 -100 19 -83 41 -152 56 -175 20 -30 12 -60 -13 -50 -32
12 -162 45 -178 45 -16 0 -107 40 -115 50 -3 4 -12 11 -22 16 -34 19 -141 120
-168 160 -83 120 -103 265 -55 398 14 38 30 76 37 85 30 39 99 100 120 104 41
9 136 -1 176 -18z m1961 -2034 c11 -7 9 -10 -8 -16 -28 -9 -74 2 -66 15 8 12
55 13 74 1z"/>
<path d="M2755 2536 c-27 -13 -61 -36 -75 -52 -29 -33 -60 -116 -60 -157 0
-39 26 -96 58 -129 33 -35 123 -78 160 -78 28 0 96 21 108 33 4 4 13 7 21 7
19 0 72 50 91 85 19 37 20 150 1 197 -41 103 -188 149 -304 94z"/>
<path d="M5191 2011 c-16 -28 -14 -76 4 -91 38 -32 78 25 53 77 -16 34 -43 41
-57 14z"/>
<path d="M5322 2018 c-7 -7 -12 -30 -12 -53 0 -44 13 -65 42 -65 25 0 41 35
33 73 -12 53 -37 71 -63 45z"/>
<path d="M4243 1923 c-11 -10 -28 -33 -38 -50 -11 -18 -23 -33 -27 -33 -4 0
-8 -6 -8 -14 0 -33 -21 -23 -78 35 -40 40 -67 59 -79 57 -28 -6 -19 -41 29
-111 52 -77 75 -96 113 -96 24 0 37 9 65 46 19 25 39 54 45 63 43 73 45 80 35
100 -13 25 -31 25 -57 3z"/>
<path d="M2234 1884 c-8 -31 1 -91 17 -110 15 -18 55 -18 62 0 8 19 -8 82 -27
111 -21 32 -44 32 -52 -1z"/>
<path d="M2412 1898 c-15 -15 -16 -65 -1 -107 8 -22 17 -31 33 -31 49 0 61 55
24 110 -27 39 -39 45 -56 28z"/>
<path d="M2967 6173 c-11 -10 -8 -43 3 -43 6 0 10 11 10 25 0 26 -2 29 -13 18z"/>
<path d="M3090 6140 c0 -5 4 -10 9 -10 6 0 13 5 16 10 3 6 -1 10 -9 10 -9 0
-16 -4 -16 -10z"/>
<path d="M3041 5904 c0 -11 3 -14 6 -6 3 7 2 16 -1 19 -3 4 -6 -2 -5 -13z"/>
<path d="M3264 475 c-21 -51 -20 -302 2 -333 17 -25 46 -29 64 -8 9 12 9 44 1
141 -6 69 -11 151 -11 181 0 48 -2 54 -21 54 -13 0 -25 -11 -35 -35z"/>
<path d="M3504 394 c4 -60 10 -163 14 -229 9 -149 23 -179 76 -159 13 5 16 24
16 100 0 52 -4 113 -10 136 -5 24 -15 70 -21 103 -15 70 -48 147 -68 153 -11
4 -12 -15 -7 -104z"/>
<path d="M2887 198 c-47 -197 -47 -198 2 -198 l38 0 5 82 c3 46 2 94 -2 108
-9 33 -36 38 -43 8z"/>
<path d="M3830 181 c-11 -22 -13 -102 -4 -150 6 -28 10 -31 41 -31 33 0 35 1
29 27 -4 16 -11 48 -16 73 -9 49 -27 100 -34 100 -3 0 -10 -9 -16 -19z"/>
</g>
</svg>
